<svg width="64" height="65" viewBox="0 0 64 65" fill="none" xmlns="http://www.w3.org/2000/svg">
<g clip-path="url(#clip0_6402_1140)">
<ellipse cx="29.875" cy="34.63" rx="29.375" ry="29" fill="#FDFDFD"/>
<path d="M52.0505 15.6397C59.9361 24.6952 61.6662 38.051 55.3954 49.0712C47.4214 63.0768 29.5394 68.0079 15.4521 60.08C13.9027 59.2085 12.4609 58.2146 11.1345 57.1214" fill="#FDFDFD"/>
<path d="M52.0505 15.6397C59.9361 24.6952 61.6662 38.051 55.3954 49.0712C47.4214 63.0768 29.5394 68.0079 15.4521 60.08C13.9027 59.2085 12.4609 58.2146 11.1345 57.1214" stroke="#56444D" stroke-width="0.5" stroke-linecap="round" stroke-linejoin="round"/>
<path d="M7.75875 53.8417C-0.16147 44.7862 -1.90699 31.4037 4.37536 20.3681C12.3456 6.35869 30.2314 1.4315 44.3186 9.35553" fill="#FDFDFD"/>
<path d="M7.75875 53.8417C-0.16147 44.7862 -1.90699 31.4037 4.37536 20.3681C12.3456 6.35869 30.2314 1.4315 44.3186 9.35553" stroke="#56444D" stroke-width="0.5" stroke-linecap="round" stroke-linejoin="round"/>
<path d="M5.27503 39.385C4.07161 33.8845 4.64448 28.3151 6.92059 23.3076C7.0244 23.0744 7.32429 22.9942 7.55882 23.1241L26.6442 33.8615C27.0018 34.0641 26.9518 34.5725 26.5635 34.6681L5.85943 39.7405C5.60183 39.8017 5.3327 39.6373 5.27503 39.385Z" fill="#A3C195" stroke="#56444D" stroke-width="0.5" stroke-linecap="round" stroke-linejoin="round"/>
<path d="M9.16594 20.716C12.2264 15.9837 16.594 12.4441 21.7614 10.5061C21.9998 10.4182 22.2689 10.5673 22.342 10.8272L28.2014 31.8394C28.3129 32.2332 27.913 32.5581 27.5708 32.3517L9.32358 21.3811C9.09673 21.2473 9.02368 20.9377 9.16594 20.7198V20.716Z" fill="#A3C195" stroke="#56444D" stroke-width="0.5" stroke-linecap="round" stroke-linejoin="round"/>
<path d="M25.1909 10.25C30.7236 9.05357 36.3254 9.62312 41.362 11.886C41.5966 11.9892 41.6773 12.2874 41.5466 12.5206L30.7466 31.4954C30.5428 31.8509 30.0315 31.8012 29.9354 31.4151L24.8334 10.831C24.7719 10.5749 24.9372 10.3073 25.1909 10.25Z" fill="#A3C195" stroke="#56444D" stroke-width="0.5" stroke-linecap="round" stroke-linejoin="round"/>
<path d="M43.9688 14.1184C48.7286 17.1611 52.2888 21.5034 54.2381 26.6408C54.3266 26.8778 54.1766 27.1454 53.9152 27.218L32.7805 33.0435C32.3845 33.1544 32.0577 32.7568 32.2653 32.4166L43.2998 14.2751C43.4343 14.0496 43.7458 13.9769 43.9649 14.1184H43.9688Z" fill="#A3C195" stroke="#56444D" stroke-width="0.5" stroke-linecap="round" stroke-linejoin="round"/>
<path d="M54.4919 30.0543C55.6953 35.5549 55.1224 41.1243 52.8463 46.1317C52.7425 46.3649 52.4426 46.4452 52.2081 46.3152L33.1227 35.5778C32.7651 35.3752 32.8151 34.8668 33.2034 34.7713L53.9075 29.6988C54.1651 29.6377 54.4342 29.802 54.4919 30.0543Z" fill="#A3C195" stroke="#56444D" stroke-width="0.5" stroke-linecap="round" stroke-linejoin="round"/>
<path d="M50.6048 48.7196C47.5444 53.4518 43.1767 56.9914 38.0094 58.9294C37.771 59.0174 37.5019 58.8683 37.4288 58.6083L31.5694 37.5961C31.4579 37.2024 31.8577 36.8775 32.1999 37.0839L50.4472 48.0544C50.674 48.1882 50.7471 48.4979 50.6048 48.7157V48.7196Z" fill="#A3C195" stroke="#56444D" stroke-width="0.5" stroke-linecap="round" stroke-linejoin="round"/>
<path d="M34.576 59.1855C29.0434 60.382 23.4415 59.8124 18.4049 57.5495C18.1704 57.4463 18.0896 57.1481 18.2203 56.9149L29.0203 37.9401C29.2241 37.5846 29.7354 37.6343 29.8315 38.0204L34.9336 58.6045C34.9951 58.8606 34.8297 59.1282 34.576 59.1855Z" fill="#A3C195" stroke="#56444D" stroke-width="0.5" stroke-linecap="round" stroke-linejoin="round"/>
<path d="M15.802 55.3171C11.0422 52.2744 7.48193 47.9321 5.53263 42.7947C5.4442 42.5577 5.59414 42.2901 5.85559 42.2175L26.9903 36.392C27.3863 36.2811 27.7131 36.6787 27.5055 37.0189L16.471 55.1604C16.3364 55.3859 16.025 55.4586 15.8058 55.3171H15.802Z" fill="#A3C195" stroke="#56444D" stroke-width="0.5" stroke-linecap="round" stroke-linejoin="round"/>
<path d="M9.41586 29.1675C9.92337 29.2401 10.4309 29.3166 10.9384 29.3969C11.1921 29.4351 11.4497 29.4619 11.6958 29.5268C11.9419 29.5995 12.1918 29.6644 12.4302 29.7791V29.8021C12.161 29.8135 11.9073 29.7791 11.6535 29.7447C11.3998 29.7065 11.1537 29.6339 10.9038 29.5689C10.404 29.4466 9.90799 29.3204 9.41202 29.1866V29.1637L9.41586 29.1675Z" fill="#56444D"/>
<path d="M8.66228 35.3447C9.16979 35.2644 9.6773 35.1918 10.1886 35.123C10.4424 35.0886 10.6962 35.0389 10.9538 35.0274C11.2114 35.0236 11.469 35.0159 11.7304 35.0542V35.0771C11.4843 35.165 11.2306 35.2032 10.9768 35.2491C10.7231 35.2873 10.4655 35.2873 10.2079 35.2988C9.69652 35.3256 9.18132 35.3485 8.66997 35.3676V35.3447H8.66228Z" fill="#56444D"/>
<path d="M19.789 33.2079C19.17 33.1735 18.5549 33.1314 17.9359 33.0817C17.6283 33.0588 17.3168 33.0512 17.0131 33.0015C16.7094 32.9479 16.4018 32.8983 16.1019 32.8027V32.7798C16.4172 32.7492 16.7286 32.7683 17.0362 32.7798C17.3438 32.7989 17.6513 32.8562 17.9551 32.9021C18.5664 32.99 19.1777 33.0817 19.789 33.1811V33.2041V33.2079Z" fill="#56444D"/>
<path d="M19.3584 16.4042C19.666 16.8132 19.9736 17.2222 20.2696 17.6389C20.4196 17.8453 20.5811 18.0441 20.7118 18.2658C20.8348 18.4913 20.9655 18.713 21.054 18.9577L21.0348 18.9691C20.8387 18.7895 20.6849 18.5869 20.5272 18.3843C20.3735 18.1779 20.2543 17.9523 20.1235 17.7345C19.8583 17.2987 19.5968 16.8591 19.3392 16.4157L19.3584 16.4042Z" fill="#56444D"/>
<path d="M14.4294 20.242C14.8447 20.544 15.2561 20.846 15.6636 21.1594C15.8674 21.3123 16.0827 21.4576 16.2711 21.6296C16.4556 21.8092 16.644 21.9812 16.8017 22.1953L16.7863 22.2106C16.5479 22.0959 16.3403 21.9468 16.1288 21.7978C15.9212 21.6449 15.7405 21.4652 15.5483 21.2932C15.1638 20.953 14.787 20.609 14.4102 20.2573L14.4256 20.242H14.4294Z" fill="#56444D"/>
<path d="M23.8184 26.553C23.407 26.0943 22.9994 25.6279 22.5996 25.1616C22.3958 24.9284 22.1843 24.7029 22.0036 24.4544C21.8268 24.2021 21.6461 23.9537 21.5 23.6708L21.5192 23.6555C21.7614 23.8543 21.969 24.0875 22.1766 24.313C22.3804 24.5423 22.5534 24.7984 22.738 25.0469C23.1109 25.54 23.4762 26.0369 23.8376 26.5339L23.8184 26.5491V26.553Z" fill="#56444D"/>
<path d="M35.468 14.3706C35.395 14.8752 35.3181 15.3798 35.2373 15.8844C35.1989 16.1366 35.172 16.3927 35.1066 16.6374C35.0336 16.882 34.9682 17.1305 34.8528 17.3675H34.8298C34.8182 17.0999 34.8528 16.8476 34.8874 16.5953C34.9259 16.3431 34.9989 16.0984 35.0643 15.8499C35.1873 15.353 35.3142 14.8599 35.4488 14.3668H35.4719L35.468 14.3706Z" fill="#56444D"/>
<path d="M29.2549 13.6176C29.3356 14.1222 29.4086 14.6268 29.4779 15.1351C29.5125 15.3874 29.5624 15.6397 29.574 15.8958C29.5778 16.1519 29.5855 16.408 29.5471 16.668H29.524C29.4356 16.4233 29.3971 16.171 29.351 15.9188C29.3125 15.6665 29.3125 15.4104 29.301 15.1543C29.2741 14.6459 29.251 14.1337 29.2318 13.6253H29.2549V13.6176Z" fill="#56444D"/>
<path d="M31.4041 24.6799C31.4387 24.0645 31.481 23.4529 31.531 22.8375C31.554 22.5317 31.5617 22.2221 31.6117 21.9201C31.6655 21.6181 31.7155 21.3123 31.8116 21.0142H31.8347C31.8655 21.3276 31.8462 21.6372 31.8347 21.943C31.8155 22.2488 31.7578 22.5546 31.7117 22.8566C31.6232 23.4644 31.531 24.0722 31.431 24.6799H31.4079H31.4041Z" fill="#56444D"/>
<path d="M48.3057 24.2518C47.8943 24.5576 47.4829 24.8634 47.0638 25.1577C46.8562 25.3068 46.6563 25.4673 46.4333 25.5973C46.2064 25.7196 45.9834 25.8496 45.7374 25.9375L45.7258 25.9184C45.9065 25.7234 46.1103 25.5705 46.3141 25.4138C46.5217 25.2609 46.7486 25.1424 46.9677 25.0125C47.406 24.7487 47.8482 24.4888 48.2941 24.2327L48.3057 24.2518Z" fill="#56444D"/>
<path d="M44.4455 19.3552C44.1418 19.768 43.8381 20.177 43.5228 20.5822C43.369 20.7848 43.2229 20.9988 43.0499 21.1861C42.8692 21.3696 42.6962 21.5569 42.4808 21.7137L42.4655 21.6984C42.5808 21.4614 42.7308 21.255 42.8807 21.0447C43.0345 20.8383 43.2152 20.6586 43.3882 20.4675C43.7304 20.0853 44.0764 19.7107 44.4301 19.3361L44.4455 19.3513V19.3552Z" fill="#56444D"/>
<path d="M38.0978 28.6897C38.5592 28.2807 39.0283 27.8755 39.4973 27.478C39.7319 27.2754 39.9587 27.0652 40.2086 26.8855C40.4624 26.7097 40.7123 26.53 40.9968 26.3848L41.0122 26.4039C40.8122 26.6447 40.5777 26.8511 40.3509 27.0575C40.1202 27.2601 39.8626 27.4321 39.6127 27.6156C39.1167 27.9864 38.6169 28.3495 38.117 28.7088L38.1017 28.6897H38.0978Z" fill="#56444D"/>
<path d="M50.3511 40.268C49.8436 40.1954 49.3361 40.1189 48.8286 40.0387C48.5748 40.0004 48.3172 39.9737 48.0712 39.9087C47.8251 39.8361 47.5752 39.7711 47.3368 39.6564V39.6335C47.606 39.622 47.8597 39.6564 48.1135 39.6908C48.3672 39.729 48.6133 39.8017 48.8632 39.8666C49.363 39.989 49.859 40.1151 50.355 40.2489V40.2718L50.3511 40.268Z" fill="#56444D"/>
<path d="M51.1085 34.0909C50.601 34.1711 50.0935 34.2438 49.5822 34.3126C49.3284 34.347 49.0747 34.3967 48.8171 34.4081C48.5595 34.412 48.3019 34.4196 48.0404 34.3814V34.3584C48.2865 34.2705 48.5402 34.2323 48.794 34.1864C49.0478 34.1482 49.3054 34.1482 49.563 34.1367C50.0743 34.11 50.5895 34.087 51.1009 34.0679V34.0909H51.1085Z" fill="#56444D"/>
<path d="M39.9818 36.2277C40.6008 36.2621 41.216 36.3041 41.835 36.3538C42.1425 36.3767 42.454 36.3844 42.7577 36.4341C43.0614 36.4876 43.369 36.5373 43.6689 36.6328V36.6558C43.3536 36.6864 43.0422 36.6672 42.7346 36.6558C42.4271 36.6367 42.1195 36.5793 41.8157 36.5335C41.2044 36.4455 40.5931 36.3538 39.9818 36.2544V36.2315V36.2277Z" fill="#56444D"/>
<path d="M40.4085 53.0313C40.1009 52.6223 39.7933 52.2133 39.4973 51.7967C39.3474 51.5902 39.1859 51.3915 39.0552 51.1698C38.9321 50.9442 38.8014 50.7225 38.713 50.4779L38.7322 50.4664C38.9283 50.6461 39.0821 50.8487 39.2397 51.0513C39.3935 51.2577 39.5127 51.4832 39.6434 51.7011C39.9087 52.1369 40.1701 52.5764 40.4277 53.0199L40.4085 53.0313Z" fill="#56444D"/>
<path d="M45.3375 49.1936C44.9223 48.8916 44.5109 48.5896 44.1033 48.2762C43.8995 48.1233 43.6842 47.978 43.4958 47.806C43.3113 47.6263 43.1229 47.4543 42.9653 47.2403L42.9807 47.225C43.219 47.3397 43.4266 47.4887 43.6381 47.6378C43.8457 47.7907 44.0264 47.9704 44.2187 48.1424C44.6031 48.4826 44.9799 48.8266 45.3567 49.1783L45.3413 49.1936H45.3375Z" fill="#56444D"/>
<path d="M35.9486 42.8826C36.36 43.3413 36.7675 43.8077 37.1674 44.274C37.3712 44.5072 37.5826 44.7327 37.7633 44.9812C37.9402 45.2335 38.1209 45.4819 38.267 45.7648L38.2478 45.7801C38.0055 45.5813 37.7979 45.3481 37.5903 45.1226C37.3865 44.8933 37.2135 44.6372 37.029 44.3887C36.656 43.8956 36.2908 43.3987 35.9294 42.9017L35.9486 42.8865V42.8826Z" fill="#56444D"/>
<path d="M24.3028 55.0687C24.3758 54.5642 24.4527 54.0596 24.5335 53.555C24.5719 53.3027 24.5988 53.0466 24.6642 52.802C24.7372 52.5574 24.8026 52.3089 24.9179 52.0719H24.941C24.9525 52.3395 24.9179 52.5918 24.8833 52.844C24.8449 53.0963 24.7718 53.341 24.7065 53.5894C24.5834 54.0864 24.4566 54.5795 24.322 55.0726H24.2989L24.3028 55.0687Z" fill="#56444D"/>
<path d="M30.5159 55.8179C30.4352 55.3134 30.3621 54.8088 30.2929 54.3004C30.2583 54.0481 30.2083 53.7958 30.1968 53.5397C30.193 53.2836 30.1853 53.0275 30.2237 52.7676H30.2468C30.3352 53.0122 30.3737 53.2645 30.4198 53.5168C30.4583 53.7691 30.4582 54.0252 30.4698 54.2813C30.4967 54.7897 30.5198 55.3019 30.539 55.8103H30.5159V55.8179Z" fill="#56444D"/>
<path d="M28.3667 44.7556C28.3321 45.371 28.2898 45.9826 28.2398 46.5981C28.2168 46.9039 28.2091 47.2135 28.1591 47.5155C28.1053 47.8174 28.0553 48.1232 27.9592 48.4214H27.9361C27.9053 48.1079 27.9246 47.7983 27.9361 47.4925C27.9553 47.1867 28.013 46.8809 28.0591 46.5789C28.1476 45.9712 28.2398 45.3634 28.3398 44.7556H28.3629H28.3667Z" fill="#56444D"/>
<path d="M11.4651 45.1837C11.8765 44.8779 12.2879 44.5721 12.707 44.2778C12.9146 44.1287 13.1145 43.9682 13.3375 43.8382C13.5643 43.7159 13.7873 43.5859 14.0334 43.498L14.0449 43.5171C13.8642 43.712 13.6605 43.8649 13.4567 44.0217C13.2491 44.1746 13.0222 44.2931 12.8031 44.423C12.3648 44.6868 11.9226 44.9467 11.4766 45.2028L11.4651 45.1837Z" fill="#56444D"/>
<path d="M15.3252 50.0842C15.629 49.6714 15.9327 49.2623 16.248 48.8572C16.4018 48.6546 16.5479 48.4405 16.7209 48.2532C16.9016 48.0697 17.0746 47.8824 17.2899 47.7257L17.3053 47.741C17.19 47.978 17.04 48.1844 16.8901 48.3946C16.7363 48.6011 16.5556 48.7807 16.3826 48.9718C16.0404 49.3541 15.6943 49.7287 15.3406 50.1033L15.3252 50.088V50.0842Z" fill="#56444D"/>
<path d="M21.673 40.7496C21.2116 41.1587 20.7425 41.5638 20.2735 41.9614C20.039 42.164 19.8121 42.3742 19.5622 42.5539C19.3084 42.7297 19.0585 42.9094 18.774 43.0546L18.7586 43.0355C18.9586 42.7947 19.1931 42.5883 19.4199 42.3818C19.6506 42.1793 19.9082 42.0072 20.1581 41.8238C20.6541 41.453 21.1539 41.0898 21.6538 40.7305L21.6691 40.7496H21.673Z" fill="#56444D"/>
</g>
<defs>
<clipPath id="clip0_6402_1140">
<rect width="64" height="64" fill="white" transform="translate(0 0.429993)"/>
</clipPath>
</defs>
</svg>
