<svg width="367" height="122" viewBox="0 0 367 122" fill="none" xmlns="http://www.w3.org/2000/svg">
<path d="M39.72 25.9299V28.3299C37 28.4099 34.92 28.7299 33.48 29.2899C32.12 29.7699 31.2 30.7299 30.72 32.1699C30.24 33.5299 30 35.6899 30 38.6499V99.1299C30 101.69 30.2 103.65 30.6 105.01C31.08 106.29 31.92 107.13 33.12 107.53C34.32 107.93 36.04 108.13 38.28 108.13H45.12C48.24 108.13 50.96 107.57 53.28 106.45C55.68 105.33 57.76 103.69 59.52 101.53C61.28 99.3699 62.72 96.7299 63.84 93.6099C64.96 90.4099 65.76 86.8099 66.24 82.8099H69C68.76 85.4499 68.64 88.8899 68.64 93.1299C68.64 94.8899 68.68 97.4099 68.76 100.69C68.92 103.97 69.16 107.37 69.48 110.89C65.4 110.73 60.8 110.65 55.68 110.65C50.56 110.57 46 110.53 42 110.53C40.08 110.53 37.64 110.53 34.68 110.53C31.72 110.53 28.48 110.57 24.96 110.65C21.52 110.65 18 110.69 14.4 110.77C10.88 110.77 7.52001 110.81 4.32001 110.89V108.49C6.96001 108.33 8.92001 108.01 10.2 107.53C11.56 107.05 12.44 106.09 12.84 104.65C13.32 103.21 13.56 101.05 13.56 98.1699V38.6499C13.56 35.6899 13.32 33.5299 12.84 32.1699C12.44 30.7299 11.56 29.7699 10.2 29.2899C8.92001 28.7299 6.96001 28.4099 4.32001 28.3299V25.9299C6.32001 26.0099 8.88001 26.0899 12 26.1699C15.12 26.2499 18.48 26.2899 22.08 26.2899C25.36 26.2899 28.6 26.2499 31.8 26.1699C35 26.0899 37.64 26.0099 39.72 25.9299ZM102.545 25.9299V28.3299C99.9847 28.4099 98.0247 28.7299 96.6647 29.2899C95.3847 29.7699 94.5047 30.7299 94.0247 32.1699C93.5447 33.5299 93.3047 35.6899 93.3047 38.6499V98.1699C93.3047 101.05 93.5447 103.21 94.0247 104.65C94.5047 106.09 95.3847 107.05 96.6647 107.53C98.0247 108.01 99.9847 108.33 102.545 108.49V110.89C100.545 110.73 97.9847 110.65 94.8647 110.65C91.7447 110.57 88.5847 110.53 85.3847 110.53C81.7847 110.53 78.4247 110.57 75.3047 110.65C72.1847 110.65 69.6247 110.73 67.6247 110.89V108.49C70.2647 108.33 72.2247 108.01 73.5047 107.53C74.8647 107.05 75.7447 106.09 76.1447 104.65C76.6247 103.21 76.8647 101.05 76.8647 98.1699V38.6499C76.8647 35.6899 76.6247 33.5299 76.1447 32.1699C75.7447 30.7299 74.8647 29.7699 73.5047 29.2899C72.2247 28.7299 70.2647 28.4099 67.6247 28.3299V25.9299C69.6247 26.0099 72.1847 26.0899 75.3047 26.1699C78.4247 26.2499 81.7847 26.2899 85.3847 26.2899C88.5847 26.2899 91.7447 26.2499 94.8647 26.1699C97.9847 26.0899 100.545 26.0099 102.545 25.9299ZM202.656 25.9299V28.3299C200.096 28.4099 198.136 28.7299 196.776 29.2899C195.416 29.7699 194.496 30.7299 194.016 32.1699C193.616 33.5299 193.416 35.6899 193.416 38.6499V98.1699C193.416 101.05 193.656 103.21 194.136 104.65C194.616 106.09 195.496 107.05 196.776 107.53C198.136 108.01 200.096 108.33 202.656 108.49V110.89C200.576 110.73 197.936 110.65 194.736 110.65C191.536 110.57 188.296 110.53 185.016 110.53C181.416 110.53 178.016 110.57 174.816 110.65C171.696 110.65 169.176 110.73 167.256 110.89V108.49C169.976 108.33 172.016 108.01 173.376 107.53C174.816 107.05 175.776 106.09 176.256 104.65C176.736 103.21 176.976 101.05 176.976 98.1699V32.8899L177.816 33.0099L148.056 111.25H146.136L114.456 33.6099V93.1299C114.456 96.9699 114.696 99.9699 115.176 102.13C115.656 104.21 116.696 105.73 118.296 106.69C119.976 107.57 122.496 108.17 125.856 108.49V110.89C124.336 110.73 122.376 110.65 119.976 110.65C117.576 110.57 115.296 110.53 113.136 110.53C111.216 110.53 109.256 110.57 107.256 110.65C105.336 110.65 103.736 110.73 102.456 110.89V108.49C105.096 108.17 107.056 107.57 108.336 106.69C109.696 105.81 110.576 104.37 110.976 102.37C111.456 100.37 111.696 97.6099 111.696 94.0899V38.6499C111.696 35.6899 111.456 33.5299 110.976 32.1699C110.576 30.7299 109.696 29.7699 108.336 29.2899C107.056 28.7299 105.096 28.4099 102.456 28.3299V25.9299C103.736 26.0099 105.336 26.0899 107.256 26.1699C109.256 26.2499 111.216 26.2899 113.136 26.2899C116.096 26.2899 118.976 26.2499 121.776 26.1699C124.576 26.0899 127.056 26.0099 129.216 25.9299L155.016 90.3699L152.376 92.5299L177.456 26.2899C178.656 26.2899 179.896 26.2899 181.176 26.2899C182.536 26.2899 183.816 26.2899 185.016 26.2899C188.296 26.2899 191.536 26.2499 194.736 26.1699C197.936 26.0899 200.576 26.0099 202.656 25.9299ZM243.74 24.2499C251.9 24.2499 259.06 25.9699 265.22 29.4099C271.38 32.8499 276.14 37.8099 279.5 44.2899C282.94 50.6899 284.66 58.4899 284.66 67.6899C284.66 76.6499 282.9 84.4899 279.38 91.2099C275.94 97.9299 271.1 103.17 264.86 106.93C258.7 110.69 251.62 112.57 243.62 112.57C235.46 112.57 228.3 110.85 222.14 107.41C215.98 103.97 211.18 99.0099 207.74 92.5299C204.38 86.0499 202.7 78.2499 202.7 69.1299C202.7 60.1699 204.46 52.3299 207.98 45.6099C211.5 38.8899 216.34 33.6499 222.5 29.8899C228.66 26.1299 235.74 24.2499 243.74 24.2499ZM243.26 26.4099C238.54 26.4099 234.42 28.2099 230.9 31.8099C227.46 35.4099 224.78 40.3699 222.86 46.6899C220.94 53.0099 219.98 60.3299 219.98 68.6499C219.98 77.1299 221.06 84.5299 223.22 90.8499C225.38 97.0899 228.3 101.93 231.98 105.37C235.66 108.73 239.7 110.41 244.1 110.41C248.82 110.41 252.9 108.61 256.34 105.01C259.86 101.41 262.58 96.4499 264.5 90.1299C266.42 83.7299 267.38 76.4099 267.38 68.1699C267.38 59.6099 266.3 52.2099 264.14 45.9699C261.98 39.7299 259.06 34.9299 255.38 31.5699C251.78 28.1299 247.74 26.4099 243.26 26.4099ZM362.489 25.9299V28.3299C359.929 28.5699 357.969 29.1699 356.609 30.1299C355.249 31.0099 354.329 32.4499 353.849 34.4499C353.449 36.3699 353.249 39.1299 353.249 42.7299V111.25C352.529 111.17 351.729 111.13 350.849 111.13C350.049 111.13 349.169 111.17 348.209 111.25L296.729 41.2899V93.1299C296.729 96.9699 296.969 99.9699 297.449 102.13C297.929 104.21 298.969 105.73 300.569 106.69C302.249 107.57 304.769 108.17 308.129 108.49V110.89C306.609 110.73 304.649 110.65 302.249 110.65C299.849 110.57 297.569 110.53 295.409 110.53C293.489 110.53 291.529 110.57 289.529 110.65C287.609 110.65 286.009 110.73 284.729 110.89V108.49C287.369 108.17 289.329 107.57 290.609 106.69C291.969 105.81 292.849 104.37 293.249 102.37C293.729 100.37 293.969 97.6099 293.969 94.0899V38.6499C293.969 35.6899 293.729 33.5299 293.249 32.1699C292.849 30.7299 291.969 29.7699 290.609 29.2899C289.329 28.7299 287.369 28.4099 284.729 28.3299V25.9299C286.009 26.0099 287.609 26.0899 289.529 26.1699C291.529 26.2499 293.489 26.2899 295.409 26.2899C297.249 26.2899 299.049 26.2499 300.809 26.1699C302.569 26.0899 304.129 26.0099 305.489 25.9299L350.489 85.8099V43.6899C350.489 39.7699 350.249 36.7699 349.769 34.6899C349.289 32.6099 348.249 31.0899 346.649 30.1299C345.049 29.1699 342.529 28.5699 339.089 28.3299V25.9299C340.609 26.0099 342.569 26.0899 344.969 26.1699C347.449 26.2499 349.729 26.2899 351.809 26.2899C353.809 26.2899 355.769 26.2499 357.689 26.1699C359.689 26.0899 361.289 26.0099 362.489 25.9299Z" fill="#FDFDFD"/>
<mask id="mask0_6402_1372" style="mask-type:luminance" maskUnits="userSpaceOnUse" x="187" y="19" width="126" height="97">
<path d="M312.428 19.4299H187V115.43H312.428V19.4299Z" fill="white"/>
</mask>
<g mask="url(#mask0_6402_1372)">
<path d="M282.916 88.5281C285.132 88.0216 286.764 87.7402 289.374 87.9582C307.883 89.5059 311.611 90.4346 311.611 90.4346C311.611 90.4346 292.455 122.803 264.526 107.178" fill="#387819"/>
<path d="M282.916 88.5281C285.132 88.0216 286.764 87.7402 289.374 87.9582C307.883 89.5059 311.611 90.4346 311.611 90.4346C311.611 90.4346 292.455 122.803 264.526 107.178" stroke="#56444D" stroke-linecap="round" stroke-linejoin="round"/>
<path d="M272.266 100.273C274.153 99.3516 276.236 98.6968 278.318 98.1194C280.405 97.5364 282.533 97.0738 284.671 96.6515C286.816 96.2491 288.967 95.8927 291.148 95.6318C293.321 95.3664 295.513 95.1611 297.715 95.1409C295.592 95.6497 293.479 96.1059 291.363 96.5417C289.248 96.9878 287.124 97.3883 285.006 97.8036L278.643 99.0041C276.518 99.4098 274.405 99.799 272.273 100.272L272.266 100.273Z" fill="#56444D"/>
<path d="M288.748 71.9605C290.126 71.2148 291.695 70.6379 293.475 70.3143C305.751 68.0842 308.333 68.0349 308.333 68.0349C308.333 68.0349 301.699 90.4485 282.662 87.5079" fill="#387819"/>
<path d="M288.748 71.9605C290.126 71.2148 291.695 70.6379 293.475 70.3143C305.751 68.0842 308.333 68.0349 308.333 68.0349C308.333 68.0349 301.699 90.4485 282.662 87.5079" stroke="#56444D" stroke-linecap="round" stroke-linejoin="round"/>
<path d="M286.007 80.2599C286.675 79.6871 287.463 79.2112 288.293 78.777C289.123 78.3381 290.01 77.9592 290.945 77.622C291.881 77.2893 292.859 77.0029 293.879 76.7904C294.899 76.5779 295.961 76.4254 297.066 76.43C296.172 76.8505 295.293 77.2062 294.399 77.5527C293.52 77.9038 292.627 78.2364 291.726 78.5598C290.826 78.8832 289.911 79.1974 288.961 79.4838C288.019 79.7748 287.055 80.052 286 80.2599H286.007Z" fill="#56444D"/>
<path d="M265.933 26.3734C265.933 26.3734 288.185 35.8637 288.698 62.9908C289.17 87.8878 270.843 109.007 246.362 113.559C229.59 116.675 209.252 113.861 192.931 91.5952" fill="#5C9042"/>
<path d="M265.933 26.3734C265.933 26.3734 288.185 35.8637 288.698 62.9908C289.17 87.8878 270.843 109.007 246.362 113.559C229.59 116.675 209.252 113.861 192.931 91.5952" stroke="#56444D" stroke-linecap="round" stroke-linejoin="round"/>
<path d="M256.33 99.8683C233.101 114.762 204.714 111.061 192.923 91.6022C181.14 72.1363 190.419 44.2776 213.656 29.3844C236.885 14.4913 265.272 18.1917 277.055 37.6506C288.839 57.1165 279.56 84.9681 256.33 99.8613V99.8683Z" fill="#FDFDFD" stroke="#56444D" stroke-linecap="round" stroke-linejoin="round"/>
<path d="M243.822 67.5143L271.568 71.1303C273.01 71.3202 273.665 72.6006 273.046 73.9865C269.373 82.2316 263.204 89.548 255.268 95.0002L240.867 71.2147C239.875 69.5756 241.74 67.2399 243.829 67.5143H243.822Z" fill="#A3C195" stroke="#56444D" stroke-linecap="round" stroke-linejoin="round"/>
<path d="M251.976 26.4438C259.369 28.2236 265.581 32.0788 269.978 37.6224C270.801 38.6566 270.386 40.2043 269.035 41.0696L242.999 57.7637C241.043 59.016 238.869 57.6652 239.545 55.618L248.613 28.3925C249.084 26.9784 250.59 26.1131 251.976 26.4508V26.4438Z" fill="#A3C195" stroke="#56444D" stroke-linecap="round" stroke-linejoin="round"/>
<path d="M273.967 44.2072C276.865 50.7076 277.492 58.1436 275.789 65.7555C275.473 67.1766 274.051 68.1896 272.609 68.0067L244.863 64.3907C242.781 64.1164 242.563 61.5134 244.511 60.2612L270.548 43.567C271.899 42.7017 273.425 42.9972 273.967 44.2143V44.2072Z" fill="#A3C195" stroke="#56444D" stroke-linecap="round" stroke-linejoin="round"/>
<path d="M217.427 32.515C225.679 27.5905 234.782 25.1072 243.59 25.3464C245.067 25.3886 245.904 26.5564 245.433 27.9705L236.365 55.1961C235.682 57.2432 232.826 57.9327 231.834 56.3006L217.434 32.515H217.427Z" fill="#A3C195" stroke="#56444D" stroke-linecap="round" stroke-linejoin="round"/>
<path d="M226.164 61.7385L198.418 58.1225C196.976 57.9326 196.321 56.6522 196.94 55.2663C200.613 47.0212 206.783 39.7048 214.718 34.2527L229.119 58.0381C230.111 59.6773 228.246 62.0129 226.157 61.7385H226.164Z" fill="#A3C195" stroke="#56444D" stroke-linecap="round" stroke-linejoin="round"/>
<path d="M218.01 102.809C210.617 101.029 204.405 97.174 200.008 91.6304C199.185 90.5962 199.6 89.0485 200.95 88.1832L226.987 71.4891C228.943 70.2368 231.117 71.5876 230.441 73.6348L221.373 100.86C220.902 102.274 219.396 103.14 218.01 102.802V102.809Z" fill="#A3C195" stroke="#56444D" stroke-linecap="round" stroke-linejoin="round"/>
<path d="M196.019 85.0456C193.12 78.5453 192.494 71.1093 194.197 63.4974C194.513 62.0763 195.934 61.0632 197.377 61.2461L225.123 64.8622C227.205 65.1365 227.423 67.7395 225.475 68.9917L199.438 85.6858C198.087 86.5511 196.561 86.2557 196.019 85.0386V85.0456Z" fill="#A3C195" stroke="#56444D" stroke-linecap="round" stroke-linejoin="round"/>
<path d="M252.559 96.7378C244.307 101.662 235.204 104.146 226.396 103.907C224.919 103.864 224.082 102.697 224.553 101.283L233.621 74.0569C234.304 72.0097 237.16 71.3202 238.152 72.9524L252.552 96.7378H252.559Z" fill="#A3C195" stroke="#56444D" stroke-linecap="round" stroke-linejoin="round"/>
<path d="M233.523 53.1699C233.178 51.9739 232.89 50.771 232.608 49.5609C232.474 48.9559 232.242 48.365 232.235 47.7459C232.221 47.1268 232.256 46.5007 232.474 45.8464C232.489 45.8113 232.524 45.7972 232.552 45.8042C232.566 45.8042 232.573 45.8183 232.58 45.8253C232.974 46.3881 233.178 46.9861 233.347 47.5841C233.516 48.1821 233.459 48.8152 233.495 49.4343C233.565 50.6725 233.628 51.9036 233.628 53.1488C233.628 53.1769 233.6 53.2051 233.572 53.2051C233.544 53.2051 233.523 53.191 233.516 53.1629L233.523 53.1699Z" fill="#56444D"/>
<path d="M233.523 38.8959C233.262 37.6859 233.058 36.4758 232.868 35.2588C232.777 34.6538 232.587 34.0488 232.622 33.4367C232.657 32.8176 232.728 32.1986 232.995 31.5724C233.009 31.5373 233.044 31.5232 233.079 31.5373C233.094 31.5373 233.101 31.5513 233.108 31.5654C233.459 32.1563 233.628 32.7543 233.748 33.3593C233.874 33.9643 233.769 34.5834 233.769 35.1955C233.748 36.4266 233.72 37.6507 233.635 38.8889C233.635 38.917 233.607 38.9451 233.572 38.9451C233.544 38.9451 233.523 38.924 233.523 38.9029V38.8959Z" fill="#56444D"/>
<path d="M241.88 55.3578C242.464 54.2533 243.09 53.1911 243.723 52.1288C244.047 51.6011 244.286 51.0172 244.715 50.56C245.137 50.1027 245.595 49.6735 246.207 49.357C246.235 49.3429 246.277 49.357 246.291 49.3851C246.291 49.3992 246.298 49.4132 246.291 49.4273C246.186 50.1097 245.918 50.6796 245.623 51.2212C245.327 51.77 244.849 52.185 244.448 52.6564C243.639 53.5921 242.823 54.5277 241.965 55.4282C241.944 55.4493 241.908 55.4493 241.887 55.4282C241.866 55.4071 241.866 55.379 241.873 55.3578H241.88Z" fill="#56444D"/>
<path d="M251.786 45.0727C252.44 44.0244 253.129 43.0114 253.833 41.9984C254.185 41.4989 254.466 40.9361 254.923 40.514C255.373 40.0919 255.859 39.6979 256.492 39.4306C256.527 39.4165 256.562 39.4306 256.576 39.4657C256.576 39.4798 256.576 39.4939 256.576 39.508C256.422 40.1763 256.126 40.725 255.789 41.2456C255.458 41.7662 254.958 42.1461 254.529 42.5823C253.664 43.4546 252.792 44.3199 251.877 45.15C251.856 45.1712 251.821 45.1712 251.8 45.15C251.786 45.1289 251.779 45.1008 251.8 45.0797L251.786 45.0727Z" fill="#56444D"/>
<path d="M246.172 61.7245C247.311 61.2321 248.472 60.7959 249.633 60.3667C250.217 60.1557 250.773 59.8532 251.385 59.7688C251.997 59.6773 252.623 59.6281 253.305 59.7688C253.34 59.7688 253.361 59.811 253.354 59.8462C253.354 59.8602 253.347 59.8743 253.333 59.8813C252.82 60.3456 252.257 60.627 251.687 60.8592C251.117 61.1054 250.484 61.1265 249.872 61.2391C248.655 61.4642 247.438 61.6823 246.2 61.8371C246.172 61.8371 246.144 61.816 246.136 61.7878C246.136 61.7597 246.151 61.7386 246.172 61.7315V61.7245Z" fill="#56444D"/>
<path d="M260.333 59.9305C261.501 59.5225 262.676 59.1708 263.858 58.826C264.449 58.6572 265.019 58.3969 265.638 58.3547C266.25 58.3125 266.876 58.3055 267.537 58.4884C267.572 58.4954 267.593 58.5306 267.579 58.5657C267.579 58.5798 267.565 58.5869 267.558 58.6009C267.016 59.023 266.44 59.2622 265.856 59.4592C265.272 59.6632 264.646 59.6351 264.034 59.7054C262.81 59.8391 261.592 59.9657 260.354 60.0361C260.326 60.0361 260.298 60.015 260.291 59.9798C260.291 59.9516 260.305 59.9305 260.326 59.9235L260.333 59.9305Z" fill="#56444D"/>
<path d="M245.145 70.1244C246.319 70.5395 247.466 71.0108 248.606 71.4892C249.176 71.7284 249.788 71.8902 250.294 72.249C250.808 72.6007 251.293 72.9947 251.701 73.5575C251.722 73.5856 251.715 73.6278 251.687 73.6489C251.673 73.656 251.659 73.663 251.652 73.663C250.963 73.656 250.358 73.4731 249.781 73.255C249.197 73.0439 248.718 72.6289 248.191 72.2982C247.15 71.6299 246.108 70.9616 245.095 70.237C245.067 70.2159 245.067 70.1807 245.081 70.1596C245.095 70.1385 245.123 70.1314 245.145 70.1385V70.1244Z" fill="#56444D"/>
<path d="M256.731 78.4679C257.864 78.9604 258.968 79.5091 260.066 80.0578C260.615 80.3392 261.213 80.5362 261.684 80.9232C262.162 81.3101 262.62 81.7322 262.978 82.3161C262.999 82.3442 262.985 82.3864 262.957 82.4005C262.943 82.4076 262.929 82.4075 262.922 82.4075C262.24 82.3513 261.656 82.1332 261.093 81.8729C260.53 81.6196 260.087 81.1764 259.587 80.8106C258.603 80.079 257.618 79.3403 256.668 78.5453C256.647 78.5242 256.64 78.489 256.661 78.4679C256.675 78.4468 256.703 78.4398 256.724 78.4539L256.731 78.4679Z" fill="#56444D"/>
<path d="M236.815 76.0267C237.195 77.2086 237.519 78.4045 237.835 79.6005C237.99 80.1985 238.236 80.7824 238.264 81.4015C238.292 82.0205 238.285 82.6467 238.081 83.3079C238.074 83.3431 238.039 83.3572 238.004 83.3502C237.99 83.3502 237.983 83.3361 237.969 83.3291C237.554 82.7733 237.336 82.1894 237.153 81.5914C236.963 81.0005 237.005 80.3673 236.949 79.7482C236.843 78.5171 236.745 77.2789 236.702 76.0337C236.702 76.0056 236.724 75.9774 236.759 75.9774C236.787 75.9774 236.808 75.9915 236.815 76.0197V76.0267Z" fill="#56444D"/>
<path d="M237.244 90.3008C237.54 91.5038 237.779 92.7068 238.011 93.9098C238.124 94.5148 238.328 95.1058 238.306 95.7248C238.292 96.3439 238.236 96.963 237.99 97.6032C237.976 97.6384 237.941 97.6524 237.905 97.6384C237.891 97.6384 237.884 97.6243 237.877 97.6102C237.504 97.0334 237.322 96.4354 237.188 95.8374C237.04 95.2394 237.125 94.6133 237.111 94.0013C237.089 92.7701 237.082 91.546 237.132 90.3079C237.132 90.2797 237.16 90.2516 237.188 90.2516C237.216 90.2516 237.237 90.2727 237.244 90.2938V90.3008Z" fill="#56444D"/>
<path d="M228.155 73.9303C227.578 75.0348 226.959 76.1041 226.326 77.1734C226.009 77.701 225.77 78.292 225.341 78.7422C224.919 79.1995 224.462 79.6286 223.856 79.9522C223.828 79.9663 223.786 79.9522 223.772 79.9241C223.772 79.91 223.765 79.896 223.772 79.8819C223.878 79.1995 224.138 78.6297 224.433 78.0809C224.722 77.5322 225.2 77.1171 225.601 76.6387C226.403 75.6961 227.212 74.7604 228.07 73.8599C228.092 73.8388 228.127 73.8388 228.148 73.8599C228.169 73.881 228.169 73.9021 228.162 73.9303H228.155Z" fill="#56444D"/>
<path d="M218.299 84.2577C217.652 85.3129 216.962 86.326 216.266 87.339C215.914 87.8385 215.64 88.4084 215.182 88.8234C214.732 89.2455 214.254 89.6395 213.621 89.9139C213.585 89.9279 213.55 89.9138 213.536 89.8787C213.536 89.8646 213.536 89.8505 213.536 89.8365C213.684 89.1681 213.986 88.6194 214.317 88.0988C214.641 87.5712 215.147 87.1983 215.576 86.7551C216.435 85.8828 217.307 85.0104 218.221 84.1733C218.243 84.1522 218.278 84.1522 218.299 84.1733C218.313 84.1944 218.32 84.2225 218.299 84.2436V84.2577Z" fill="#56444D"/>
<path d="M223.758 67.2962C222.604 67.7675 221.436 68.1826 220.269 68.5836C219.685 68.7806 219.122 69.076 218.503 69.1464C217.884 69.2238 217.258 69.259 216.582 69.1112C216.547 69.1042 216.526 69.069 216.533 69.0338C216.533 69.0198 216.54 69.0057 216.554 68.9987C217.075 68.5484 217.645 68.2811 218.221 68.056C218.798 67.8238 219.431 67.8168 220.044 67.7113C221.268 67.5143 222.492 67.3243 223.73 67.1836C223.758 67.1836 223.786 67.2047 223.793 67.2329C223.793 67.261 223.779 67.2821 223.758 67.2891V67.2962Z" fill="#56444D"/>
<path d="M209.561 68.8017C208.387 69.1886 207.205 69.5193 206.016 69.8358C205.425 69.9906 204.848 70.2439 204.229 70.272C203.61 70.3072 202.991 70.2931 202.329 70.0961C202.294 70.0891 202.28 70.0539 202.287 70.0187C202.287 70.0047 202.301 69.9976 202.308 69.9836C202.857 69.5685 203.434 69.3434 204.025 69.1605C204.616 68.9705 205.242 69.0057 205.854 68.9494C207.078 68.8369 208.302 68.7384 209.54 68.6891C209.568 68.6891 209.597 68.7102 209.597 68.7454C209.597 68.7735 209.582 68.7946 209.554 68.8017H209.561Z" fill="#56444D"/>
<path d="M225.32 58.3126C224.187 57.7991 223.083 57.2362 221.985 56.6664C221.436 56.378 220.839 56.174 220.36 55.773C219.882 55.379 219.424 54.9499 219.066 54.3589C219.045 54.3308 219.059 54.2886 219.087 54.2745C219.101 54.2675 219.115 54.2675 219.122 54.2675C219.811 54.3308 220.395 54.5629 220.958 54.8303C221.521 55.0906 221.964 55.5408 222.464 55.9137C223.448 56.6594 224.426 57.4192 225.376 58.2212C225.397 58.2423 225.404 58.2774 225.376 58.2985C225.362 58.3196 225.334 58.3267 225.313 58.3126H225.32Z" fill="#56444D"/>
<path d="M214.458 49.0544C213.367 48.4705 212.319 47.8373 211.264 47.1971C210.743 46.8735 210.159 46.6273 209.716 46.1982C209.266 45.7761 208.844 45.3117 208.541 44.6997C208.527 44.6716 208.541 44.6293 208.569 44.6153C208.583 44.6153 208.598 44.6082 208.612 44.6153C209.287 44.7278 209.85 44.9952 210.391 45.2977C210.933 45.5931 211.341 46.0715 211.806 46.4796C212.727 47.2886 213.649 48.1117 214.528 48.977C214.549 48.9981 214.549 49.0333 214.528 49.0544C214.507 49.0755 214.479 49.0755 214.458 49.0614V49.0544Z" fill="#56444D"/>
</g>
</svg>
